<?xml version="1.0" encoding="utf-8"?>
<svg version="1.1" xmlns:xlink="http://www.w3.org/1999/xlink" width="59px" height="59px" xmlns="http://www.w3.org/2000/svg">
  <g transform="matrix(1 0 0 1 -157 -27 )">
    <path d="M 186.5 27  C 203.02 27  216 39.98  216 56.5  C 216 73.02  203.02 86  186.5 86  C 169.98 86  157 73.02  157 56.5  C 157 39.98  169.98 27  186.5 27  Z " fill-rule="nonzero" fill="#ffffff" stroke="none" />
    <path d="M 186.5 27.5  C 202.74 27.5  215.5 40.26  215.5 56.5  C 215.5 72.74  202.74 85.5  186.5 85.5  C 170.26 85.5  157.5 72.74  157.5 56.5  C 157.5 40.26  170.26 27.5  186.5 27.5  Z " stroke-width="1" stroke="#797979" fill="none" />
  </g>
</svg>