<?xml version="1.0" encoding="utf-8"?>
<svg version="1.1" xmlns:xlink="http://www.w3.org/1999/xlink" width="375px" height="140px" xmlns="http://www.w3.org/2000/svg">
  <g transform="matrix(1 0 0 1 -1 0 )">
    <path d="M 1 0  L 376 0  L 376 140  L 1 140  L 1 0  " fill-rule="nonzero" fill="#cccccc" stroke="none" />
    <path d="M 11 10  L 366 10  L 366 130  L 11 130  L 11 10  " fill-rule="nonzero" fill="#ffffff" stroke="none" />
    <path d="M 206.5 42  C 200.62 42  196 37.38  196 31.5  C 196 25.62  200.62 21  206.5 21  C 212.38 21  217 25.62  217 31.5  C 217 37.38  212.38 42  206.5 42  " fill-rule="nonzero" fill="#cccccc" stroke="none" />
    <path d="M 15 127  L 15 64.85  L 102 36.6  L 223.8 101.688  L 293.4 53.55  L 363 101.688  L 363 127  L 15 127  " fill-rule="nonzero" fill="#169bd5" stroke="none" />
  </g>
</svg>