<?xml version="1.0" encoding="utf-8"?>
<svg version="1.1" xmlns:xlink="http://www.w3.org/1999/xlink" width="40px" height="50px" xmlns="http://www.w3.org/2000/svg">
  <defs>
    <filter x="59px" y="486px" width="40px" height="50px" filterUnits="userSpaceOnUse" id="filter4">
      <feOffset dx="1" dy="1" in="SourceAlpha" result="shadowOffsetInner" />
      <feGaussianBlur stdDeviation="2.5" in="shadowOffsetInner" result="shadowGaussian" />
      <feComposite in2="shadowGaussian" operator="atop" in="SourceAlpha" result="shadowComposite" />
      <feColorMatrix type="matrix" values="0 0 0 0 0  0 0 0 0 0  0 0 0 0 0  0 0 0 0.698039215686274 0  " in="shadowComposite" />
    </filter>
    <g id="widget5">
      <path d="M 78 529.036928468354  C 72.2 519.40734059591  63.5 513.629587872444  63.5 504  C 63.5 498.985714285714  66.4 490.5  78 490.5  C 89.6 490.5  92.5 498.985714285714  92.5 504  C 92.5 513.629587872444  83.8 519.40734059591  78 529.036928468354  Z " fill-rule="nonzero" fill="#009dd9" stroke="none" />
      <path d="M 78 530  C 72 520  63 514  63 504  C 63 498.8  66 490  78 490  C 90 490  93 498.8  93 504  C 93 514  84 520  78 530  Z M 78 528.073856936707  C 83.6 518.81468119182  92 513.259175744887  92 504  C 92 499.171428571429  89.2 491  78 491  C 66.8 491  64 499.171428571429  64 504  C 64 513.259175744887  72.4 518.81468119182  78 528.073856936707  Z " fill-rule="nonzero" fill="#ffffff" stroke="none" />
    </g>
  </defs>
  <g transform="matrix(1 0 0 1 -59 -486 )">
    <use xlink:href="#widget5" filter="url(#filter4)" />
    <use xlink:href="#widget5" />
  </g>
</svg>